<svg xmlns="http://www.w3.org/2000/svg" width="126" height="20" viewBox="0 0 126 20" fill="none">
  <path d="M117.474 3.08487V8.53314H118.969C120.163 8.53314 121 8.33 121.477 7.92364C121.963 7.51729 122.207 6.81241 122.207 5.80902C122.207 4.80561 121.963 4.10073 121.477 3.69439C121 3.28804 120.163 3.08487 118.969 3.08487H117.474ZM113.829 0H118.833C121.378 0 123.208 0.456097 124.319 1.36829C125.44 2.28048 126 3.76071 126 5.80902C126 7.85729 125.44 9.33757 124.319 10.2497C123.208 11.1619 121.378 11.618 118.833 11.618H117.474V18.5714H113.829V0Z" fill="#EFE8CB"/>
  <path d="M103.084 3.35854L101.379 10.9588H104.802L103.084 3.35854ZM100.876 0H105.306L110.25 18.5714H106.63L105.502 13.9814H100.655L99.5513 18.5714H95.9316L100.876 0Z" fill="#EFE8CB"/>
  <path d="M88.4296 18.5714H84.82V3.20927H80.1816V0H93.068V3.20927H88.4296V18.5714Z" fill="#EFE8CB"/>
  <path d="M76.602 18.5714H65.1475V0H76.602V3.23414H68.781V7.2395H75.8632V10.4736H68.781V15.3373H76.602V18.5714Z" fill="#EFE8CB"/>
  <path d="M47.9658 0H52.2412L54.4029 8.14757L56.5527 0H60.8522V18.5714H57.7673V3.69439L55.8483 11.8171H52.9941L51.0509 3.69439V18.5714H47.9658V0Z" fill="#EFE8CB"/>
  <path d="M37.9371 3.35854L36.2317 10.9588H39.6548L37.9371 3.35854ZM35.7287 0H40.1578L45.1024 18.5714H41.4831L40.3542 13.9814H35.5077L34.4037 18.5714H30.7842L35.7287 0Z" fill="#EFE8CB"/>
  <path d="M24.0844 9.80193C24.4472 9.87657 24.7606 10.0507 25.0242 10.3244C25.2963 10.5897 25.626 11.1121 26.0136 11.8917L29.3523 18.5714H25.3458L23.1201 13.8819C23.0539 13.7492 22.9674 13.5668 22.8604 13.3346C22.209 11.9331 21.4424 11.2324 20.5603 11.2324H19.3979V18.5714H15.75V0H21.0177C23.3921 0 25.0943 0.422926 26.1248 1.26878C27.1635 2.11463 27.6828 3.49121 27.6828 5.39852C27.6828 6.67561 27.3738 7.69143 26.7554 8.44607C26.1372 9.20071 25.2469 9.65264 24.0844 9.80193ZM19.3979 3.08487V8.14757H21.1168C22.1141 8.14757 22.8272 7.95264 23.2561 7.56293C23.6929 7.16486 23.9114 6.5139 23.9114 5.60998C23.9114 4.70609 23.6971 4.05926 23.2683 3.66949C22.8396 3.27976 22.1225 3.08487 21.1168 3.08487H19.3979Z" fill="#EFE8CB"/>
  <path d="M11.0898 8.85718L6.08984 5.85718V11.8572L11.0898 8.85718Z" fill="url(#paint0_linear_1228_1451)"/>
  <path d="M12.8862 3.23414H5.06506V7.2395V10.4736V18.5714H1.43164V0H12.8862V3.23414Z" fill="#EFE8CB"/>

  <defs>
    <linearGradient id="paint0_linear_1228_1451" x1="11" y1="9" x2="3.5" y2="9" gradientUnits="userSpaceOnUse">
      <stop stop-color="#D0391C"/>
      <stop offset="1" stop-color="#D0391C" stop-opacity="0"/>
    </linearGradient>
  </defs>
</svg>
